<?xml version="1.0" encoding="utf-8"?>
<!-- Generator: Adobe Illustrator 16.0.0, SVG Export Plug-In . SVG Version: 6.00 Build 0)  -->
<!DOCTYPE svg PUBLIC "-//W3C//DTD SVG 1.1//EN" "http://www.w3.org/Graphics/SVG/1.1/DTD/svg11.dtd">
<svg version="1.1" id="Layer_1" xmlns="http://www.w3.org/2000/svg" xmlns:xlink="http://www.w3.org/1999/xlink" x="0px" y="0px"
	 width="385.105px" height="54.585px" viewBox="0 0 385.105 54.585" enable-background="new 0 0 385.105 54.585"
	 xml:space="preserve">
<path fill="#fff2bc" d="M82.771,20.057c0-2.792-0.783-4.904-2.313-6.368c-1.565-1.464-4.048-2.179-7.45-2.179h-7.893v17.026h7.858
	C79.504,28.535,82.771,25.709,82.771,20.057z M65.046,35.005V54.04h-7.893V5.005h16.636c5.647,0,9.9,1.328,12.724,4.018
	c2.857,2.69,4.252,6.368,4.252,11.033c0,4.631-1.463,8.274-4.354,10.931c-2.926,2.656-7.11,3.984-12.622,3.984h-8.743V35.005z"/>
<rect x="95.188" y="2.656" fill="#fff2bc" width="7.688" height="51.384"/>
<rect x="377.417" y="2.656" fill="#fff2bc" width="7.688" height="51.384"/>
<path fill="#fff2bc" d="M144.925,15.766V54.04h-7.995v-8.343c-0.987,2.826-2.654,5.006-5.069,6.572
	c-2.416,1.566-5.205,2.315-8.403,2.315c-4.457,0-7.995-1.43-10.682-4.291c-2.688-2.859-4.014-6.98-4.014-12.293V15.766h7.893V37.15
	c0,3.474,0.884,6.13,2.653,8.036c1.769,1.873,4.15,2.826,7.212,2.826c3.13,0,5.681-1.021,7.552-3.064
	c1.905-2.043,2.858-5.006,2.858-8.888V15.766H144.925z"/>
<path fill="#fff2bc" d="M174.999,18.729c2.721,2.281,4.354,5.346,4.967,9.194h-7.485c-0.34-2.078-1.225-3.746-2.688-5.04
	c-1.462-1.26-3.402-1.907-5.783-1.907c-1.973,0-3.538,0.477-4.626,1.43c-1.089,0.954-1.633,2.248-1.633,3.848
	c0,1.192,0.409,2.179,1.191,2.929c0.783,0.749,1.769,1.328,2.959,1.736c1.191,0.408,2.858,0.885,5.035,1.396
	c2.857,0.646,5.205,1.328,6.974,2.009s3.3,1.805,4.593,3.303c1.258,1.499,1.904,3.542,1.904,6.13c0,3.2-1.225,5.789-3.64,7.764
	c-2.415,1.975-5.715,2.996-9.832,2.996c-4.763,0-8.607-1.123-11.567-3.337c-2.925-2.214-4.694-5.312-5.307-9.296h7.688
	c0.238,2.077,1.157,3.779,2.79,5.073c1.633,1.294,3.742,1.941,6.396,1.941c1.905,0,3.402-0.511,4.491-1.499
	c1.088-0.986,1.633-2.247,1.633-3.779c0-1.328-0.408-2.418-1.259-3.201c-0.816-0.783-1.871-1.396-3.13-1.838
	c-1.259-0.443-2.959-0.886-5.137-1.363c-2.79-0.646-5.035-1.293-6.77-1.94s-3.232-1.702-4.457-3.167
	c-1.225-1.464-1.837-3.439-1.837-5.925c0-3.235,1.225-5.856,3.64-7.866c2.415-2.009,5.783-3.031,10.104-3.031
	C168.705,15.289,172.277,16.413,174.999,18.729z"/>
<path fill="#fff2bc" d="M208.848,18.729c2.722,2.281,4.354,5.346,4.968,9.194h-7.484c-0.341-2.078-1.226-3.746-2.688-5.04
	c-1.462-1.26-3.401-1.907-5.783-1.907c-1.973,0-3.538,0.477-4.627,1.43c-1.088,0.954-1.633,2.248-1.633,3.848
	c0,1.192,0.408,2.179,1.191,2.929c0.782,0.749,1.769,1.328,2.959,1.736c1.191,0.408,2.858,0.885,5.035,1.396
	c2.857,0.646,5.205,1.328,6.975,2.009c1.769,0.681,3.3,1.805,4.593,3.303c1.259,1.499,1.904,3.542,1.904,6.13
	c0,3.2-1.225,5.789-3.64,7.764s-5.716,2.996-9.832,2.996c-4.763,0-8.606-1.123-11.566-3.337c-2.926-2.214-4.694-5.312-5.308-9.296
	h7.688c0.238,2.077,1.157,3.779,2.79,5.073s3.742,1.941,6.396,1.941c1.905,0,3.402-0.511,4.491-1.499
	c1.088-0.986,1.633-2.247,1.633-3.779c0-1.328-0.408-2.418-1.259-3.201c-0.816-0.783-1.871-1.396-3.13-1.838
	c-1.259-0.443-2.96-0.886-5.137-1.363c-2.79-0.646-5.035-1.293-6.771-1.94s-3.231-1.702-4.456-3.167
	c-1.225-1.464-1.838-3.439-1.838-5.925c0-3.235,1.225-5.856,3.641-7.866s5.783-3.031,10.104-3.031
	C202.555,15.289,206.16,16.413,208.848,18.729z"/>
<polygon fill="#fff2bc" points="270.152,5.755 270.152,54.006 262.157,54.006 262.157,17.843 248.209,54.04 241.269,54.04 
	227.253,17.843 227.253,54.04 219.36,54.04 219.36,5.755 228.92,5.755 244.875,44.302 260.559,5.755 "/>
<path fill="#fff2bc" d="M289.237,23.53c-1.701,0.919-3.096,2.35-4.116,4.256c-1.055,1.906-1.565,4.256-1.565,7.049
	c0,2.826,0.511,5.176,1.565,7.082c1.054,1.908,2.415,3.304,4.116,4.223c1.701,0.92,3.572,1.396,5.613,1.396s3.912-0.477,5.613-1.396
	c1.701-0.919,3.096-2.35,4.116-4.223c1.055-1.906,1.564-4.256,1.564-7.082c0-2.793-0.51-5.143-1.564-7.049
	c-1.055-1.907-2.415-3.337-4.116-4.256s-3.572-1.396-5.613-1.396C292.81,22.167,290.938,22.61,289.237,23.53z M304.853,17.639
	c2.959,1.566,5.272,3.848,6.939,6.811c1.667,2.962,2.483,6.436,2.483,10.42c0,4.019-0.816,7.525-2.483,10.487
	c-1.667,2.963-3.98,5.244-6.939,6.811c-2.96,1.566-6.294,2.35-10.002,2.35s-7.009-0.783-9.968-2.35
	c-2.926-1.566-5.239-3.848-6.94-6.844c-1.701-2.997-2.518-6.471-2.518-10.454c0-3.984,0.851-7.458,2.518-10.42
	c1.701-2.963,4.015-5.244,6.94-6.811s6.26-2.35,9.968-2.35S301.893,16.072,304.853,17.639z"/>
<path fill="#fff2bc" d="M333.089,23.802c-1.77,1.056-3.13,2.52-4.15,4.46c-1.021,1.907-1.531,4.121-1.531,6.641
	c0,2.554,0.511,4.768,1.531,6.674s2.415,3.371,4.15,4.427c1.769,1.056,3.742,1.566,5.953,1.566c3.504,0,6.328-1.124,8.471-3.371
	c2.144-2.247,3.198-5.347,3.198-9.263c0-3.881-1.055-6.98-3.198-9.228c-2.143-2.281-4.967-3.405-8.471-3.405
	C336.831,22.236,334.824,22.747,333.089,23.802z M350.405,17.639c2.619,1.566,4.66,3.848,6.123,6.811
	c1.463,2.962,2.211,6.436,2.211,10.42c0,4.019-0.748,7.525-2.211,10.487c-1.497,2.963-3.538,5.244-6.123,6.811
	c-2.62,1.566-5.58,2.35-8.914,2.35c-3.47,0-6.43-0.852-8.879-2.554s-4.15-3.983-5.137-6.811v8.888h-7.893V2.656h7.893v22.032
	c0.986-2.826,2.688-5.108,5.137-6.811c2.449-1.702,5.409-2.554,8.879-2.554C344.791,15.289,347.785,16.072,350.405,17.639z"/>
<path fill="#fff2bc" d="M371.531,15.766V54.04h-7.893V15.766H371.531z M363.877,1.328C364.795,0.442,366.02,0,367.551,0
	s2.756,0.442,3.708,1.328c0.953,0.885,1.429,1.975,1.429,3.337c0,1.328-0.476,2.418-1.429,3.269c-0.952,0.817-2.177,1.26-3.708,1.26
	s-2.756-0.409-3.674-1.26c-0.919-0.817-1.396-1.907-1.396-3.269S362.958,2.213,363.877,1.328z"/>
<path fill="#fff2bc" d="M36.877,33.608h-8.301v8.309c0,2.18-1.837,3.951-4.082,3.951c-2.246,0-4.083-1.771-4.083-3.951v-8.309
	h-8.335c-2.177,0-3.946-1.838-3.946-4.086c0-2.247,1.769-4.086,3.946-4.086h8.301v-8.309c0-2.179,1.837-3.95,4.083-3.95
	c2.245,0,4.082,1.771,4.082,3.95v8.309h8.301c2.177,0,3.946,1.839,3.946,4.086C40.824,31.771,39.055,33.608,36.877,33.608z
	 M45.008,5.005H3.98C1.769,5.005,0,6.776,0,8.99v41.066c0,2.214,1.769,3.984,3.98,3.984h41.028c2.211,0,3.98-1.771,3.98-3.984V8.99
	C48.955,6.81,47.186,5.04,45.008,5.005z"/>
</svg>
